<svg width="132" height="107" viewBox="0 0 132 107" fill="none" xmlns="http://www.w3.org/2000/svg">
<path opacity="0.15" d="M114.174 106.989H17.0777C7.09059 106.989 -0.762514 98.4633 0.0590739 88.5082L4.47644 35.1583C5.15932 26.8464 11.7534 20.2523 20.0653 19.5481L108.84 12.1005C118.368 11.3002 126.69 18.4811 127.299 28.0201L131.214 88.8176C131.844 98.6553 124.034 106.989 114.174 106.989Z" fill="#007AFF"/>
<path d="M78.2252 41.9515C79.4166 41.2312 80.6851 40.6853 81.9938 40.3135L82.4471 38.1363C82.6362 37.2277 83.4291 36.5714 84.3568 36.5551L87.4861 36.5003C88.4138 36.484 89.2294 37.1121 89.4503 38.0136L89.9794 40.1728C91.3 40.4982 92.5876 40.9996 93.8036 41.6773L95.6617 40.4593C96.438 39.9503 97.4629 40.0469 98.1304 40.6917L100.382 42.866C101.05 43.5104 101.182 44.5314 100.701 45.3248L99.5491 47.2238C100.27 48.4157 100.816 49.685 101.187 50.9933L103.363 51.4462C104.272 51.6353 104.928 52.4283 104.944 53.3559L105 56.4858C105.016 57.4134 104.388 58.229 103.486 58.4499L101.327 58.9795C101.001 60.3001 100.5 61.5869 99.8224 62.8034L101.04 64.6619C101.549 65.4378 101.452 66.4628 100.808 67.1302L98.6341 69.382C97.9897 70.0499 96.9687 70.1822 96.175 69.7011L94.2752 68.5493C93.0834 69.2696 91.8145 69.8155 90.5058 70.1869L90.0529 72.3637C89.8638 73.2723 89.0709 73.929 88.1432 73.9449L85.0139 73.9997C84.0862 74.016 83.2706 73.3879 83.0497 72.4864L82.5202 70.3268C81.1996 70.0014 79.9128 69.5 78.6964 68.8223L76.8383 70.0403C76.062 70.5493 75.0371 70.4527 74.3696 69.8079L72.1179 67.6336C71.4504 66.9892 71.3177 65.9682 71.7992 65.1748L72.951 63.2754C72.2307 62.0835 71.6844 60.815 71.313 59.5063L69.1363 59.0534C68.2277 58.8643 67.5714 58.0713 67.5551 57.1437L67.5003 54.0146C67.484 53.087 68.1121 52.2714 69.0135 52.0505L71.1731 51.5209C71.4985 50.2003 71.9999 48.9135 72.6776 47.697L71.4596 45.8385C70.9511 45.0622 71.0472 44.0376 71.692 43.3698L73.8659 41.118C74.5103 40.4505 75.5313 40.3178 76.3246 40.7989L78.2248 41.9511L78.2252 41.9515ZM81.5846 50.3477C78.9908 53.0345 79.0658 57.3153 81.7526 59.9096C84.4394 62.5034 88.7201 62.4284 91.3139 59.7415C93.9077 57.0547 93.8326 52.7735 91.1458 50.1796C88.4591 47.5858 84.1784 47.6609 81.5846 50.3477Z" fill="#3395FF"/>
<path d="M100.543 74.9526C101.297 74.4964 102.101 74.1507 102.929 73.9152L103.216 72.5363C103.336 71.9609 103.838 71.5452 104.426 71.5349L106.408 71.5002C106.995 71.4899 107.512 71.8877 107.652 72.4586L107.987 73.8261C108.823 74.0322 109.639 74.3497 110.409 74.779L111.586 74.0075C112.077 73.6852 112.727 73.7464 113.149 74.1547L114.575 75.5318C114.998 75.9399 115.082 76.5866 114.777 77.089L114.048 78.2918C114.504 79.0466 114.85 79.8505 115.085 80.6791L116.463 80.9659C117.039 81.0857 117.455 81.5879 117.465 82.1754L117.5 84.1576C117.51 84.7452 117.112 85.2617 116.541 85.4016L115.174 85.737C114.968 86.5734 114.65 87.3884 114.221 88.1588L114.992 89.3359C115.314 89.8273 115.253 90.4764 114.845 90.8991L113.468 92.3253C113.06 92.7483 112.414 92.832 111.911 92.5273L110.708 91.7979C109.953 92.2541 109.149 92.5998 108.32 92.8351L108.034 94.2137C107.914 94.7891 107.412 95.205 106.824 95.2151L104.842 95.2498C104.255 95.2601 103.738 94.8623 103.598 94.2914L103.263 92.9236C102.426 92.7176 101.611 92.4 100.841 91.9708L99.6643 92.7422C99.1726 93.0645 98.5235 93.0034 98.1008 92.595L96.6746 91.2179C96.2519 90.8098 96.1679 90.1632 96.4729 89.6607L97.2023 88.4577C96.7461 87.7029 96.4001 86.8995 96.1649 86.0707L94.7863 85.7838C94.2109 85.6641 93.7952 85.1618 93.7849 84.5743L93.7502 82.5926C93.7399 82.0051 94.1377 81.4885 94.7086 81.3486L96.0763 81.0132C96.2824 80.1769 96.5999 79.3619 97.0292 78.5914L96.2577 77.4144C95.9357 76.9227 95.9966 76.2738 96.4049 75.8509L97.7817 74.4247C98.1898 74.002 98.8365 73.918 99.3389 74.2227L100.542 74.9523L100.543 74.9526ZM102.67 80.2702C101.027 81.9719 101.075 84.683 102.777 86.3261C104.478 87.9688 107.189 87.9213 108.832 86.2196C110.475 84.518 110.427 81.8066 108.726 80.1638C107.024 78.521 104.313 78.5685 102.67 80.2702Z" fill="#1FC994"/>
<path d="M78.3352 12.3245L74.5367 9.77441L67.2384 10.5533L66.9396 11.0975L43.9992 10.436C40.1793 10.3399 36.8396 13.0181 36.0927 16.7632L22.6699 90.1407C22.6592 90.194 22.6592 90.2474 22.6486 90.3114L21.6562 93.9392L24.9213 96.1265C25.7429 96.7561 26.7458 97.1935 27.8555 97.3322L59.2893 98.4206C63.4399 98.9434 67.2811 96.1265 68.0173 91.9973L80.9386 18.4064C81.3761 15.9417 80.2664 13.6049 78.3458 12.3139L78.3352 12.3245Z" fill="#8262F9"/>
<path d="M40.6145 8.49374L71.4614 9.34734C75.1426 9.4327 77.8741 12.7831 77.2232 16.4002L64.4192 89.3402C63.683 93.4268 59.8845 96.2223 55.7659 95.6995L24.6096 94.6325C21.1525 94.195 18.7944 90.9193 19.4773 87.5049L32.7721 14.7677C33.5083 11.0439 36.816 8.39771 40.6145 8.49374Z" fill="white"/>
<path d="M40.348 8.63262H40.5294L71.6431 9.48622C73.2543 9.5289 74.7694 10.2651 75.783 11.5135C76.8074 12.7619 77.2235 14.3944 76.9354 15.9842L64.0141 89.5751C63.3845 93.0748 60.3543 95.6143 56.8012 95.6143C56.4917 95.6143 56.1823 95.5929 55.8302 95.5503L24.4498 94.4619C22.9133 94.2699 21.5689 93.4696 20.6619 92.2106C19.755 90.9515 19.4242 89.4257 19.7337 87.8999L33.1565 14.5331C33.8394 11.1081 36.859 8.63262 40.348 8.63262ZM40.348 8.09912C36.6029 8.09912 33.3699 10.7453 32.6337 14.4264L19.2108 87.8039C18.5279 91.2503 20.9073 94.558 24.3964 94.9954L55.8302 96.0838C56.161 96.1264 56.4917 96.1478 56.8225 96.1478C60.5783 96.1478 63.886 93.459 64.5582 89.6604L77.4689 16.0803C78.1198 12.4311 75.3669 9.04875 71.6538 8.96339L40.5401 8.10979C40.4761 8.10979 40.4121 8.10979 40.348 8.10979V8.09912Z" fill="#8262F9"/>
<path d="M58.4542 12.2176L50.2489 12.0148C50.0996 12.0148 49.9822 11.8868 49.9929 11.7374C50.0035 11.588 50.1209 11.46 50.2703 11.4813L58.4755 11.6841C58.6249 11.6841 58.7422 11.8121 58.7316 11.9615C58.7316 12.1109 58.6142 12.2176 58.4648 12.2176H58.4542Z" fill="#8262F9"/>
<path d="M45.7938 16.4858L45.591 17.6381L43.7771 17.5848L43.457 19.388L42.3047 19.356L42.8275 16.4004L45.7938 16.4858Z" fill="#FF0000"/>
<path d="M44.833 21.8637L44.6303 23.016L41.6641 22.9307L42.1869 19.9751L43.3499 20.0071L43.0298 21.8103L44.833 21.8637Z" fill="#FF0000"/>
<path d="M48.7469 20.1668L48.2241 23.1224L45.2578 23.037L45.4605 21.8846L47.2638 21.938L47.5839 20.1348L48.7469 20.1668Z" fill="#FF0000"/>
<path d="M49.3906 16.5927L48.8571 19.5483L47.7047 19.5163L48.0248 17.713L46.2109 17.6597L46.4137 16.5073L49.3906 16.5927Z" fill="#FF0000"/>
<path d="M46.3276 20.7643L44.375 20.7002L44.7164 18.7583L46.6797 18.8223L46.3276 20.7643Z" fill="#00349F"/>
<path d="M64.4129 23.6243L48.2266 23.1228L49.3896 16.5928L65.576 17.0836L64.4129 23.6243Z" fill="#045B9B"/>
<path d="M57.7192 66.0799L33.6691 65.1836C30.1053 65.0556 28.6648 61.1717 31.0976 58.3015L46.6331 40.0238C48.9805 37.2603 53.2271 37.4097 54.4968 40.3119L62.8621 59.4752C64.1745 62.4841 61.2723 66.2079 57.7085 66.0799H57.7192Z" fill="#EA7FE0"/>
<path d="M48.0255 56.7437L46.7665 56.7011C46.2223 56.6797 45.8489 56.2422 45.9236 55.7087L47.0973 47.6956C47.1826 47.1301 47.7375 46.6713 48.3136 46.6926L50.2983 46.7673C50.8851 46.7886 51.2586 47.2795 51.1198 47.845L49.2313 55.8368C49.1032 56.3703 48.5804 56.7651 48.0255 56.7544V56.7437Z" fill="white"/>
<path d="M47.474 61.6198L45.4787 61.5451C45.1266 61.5345 44.8918 61.2464 44.9558 60.8943L45.3293 58.9523C45.3933 58.6109 45.7347 58.3441 46.0869 58.3548L48.0821 58.4295C48.4342 58.4402 48.669 58.7283 48.605 59.0804L48.2315 61.0223C48.1675 61.3637 47.8261 61.6305 47.474 61.6198Z" fill="white"/>
</svg>
